<?xml version="1.0" encoding="utf-8"?>
<!-- Generator: Adobe Illustrator 25.3.1, SVG Export Plug-In . SVG Version: 6.00 Build 0)  -->
<svg version="1.1" id="图层_1" xmlns="http://www.w3.org/2000/svg" xmlns:xlink="http://www.w3.org/1999/xlink" x="0px" y="0px"
	 viewBox="0 0 493 493" style="enable-background:new 0 0 493 493;" xml:space="preserve">
<style type="text/css">
	.st0{fill:none;}
	.st1{fill-rule:evenodd;clip-rule:evenodd;fill:#649150;}
	.st2{fill:#FFFFFF;}
	.st3{fill-rule:evenodd;clip-rule:evenodd;fill:#FFFFFF;}
</style>
<path class="st0" d="M0,0h493v493H0V0z"/>
<path class="st1" d="M249,65L249,65c101.6,0,184,82.4,184,184v0c0,101.6-82.4,184-184,184h0c-101.6,0-184-82.4-184-184v0
	C65,147.4,147.4,65,249,65z"/>
<path class="st2" d="M246.5,298.3c-70.8,0-146-10.6-146-30.2s75.2-30.2,146-30.2c70.8,0,146,10.6,146,30.2S317.3,298.3,246.5,298.3z
	 M246.5,242.7c-82.5,0-140,13.4-140,25.5s57.5,25.5,140,25.5s140-13.4,140-25.5S329,242.7,246.5,242.7z"/>
<g>
	<path class="st3" d="M171.7,145.9v57.4h45.4v17.3v6.4v18v29.8v10.6c11,0.7,22.3,1,33.9,1c8.6,0,17-0.2,25.2-0.6v-11v-30.3v-18v-5.9
		v-17.3h45.1v-57.4H171.7z"/>
	<polygon class="st3" points="217.1,305.3 217.1,330.7 217.1,347.1 276.2,347.1 276.2,330.7 276.2,305.7 276.2,296.8 217.1,296.8 	
		"/>
</g>
</svg>
