<svg width="200" height="200" viewBox="0 0 200 200" fill="none" xmlns="http://www.w3.org/2000/svg">
<g clip-path="url(#clip0_3883_3033)">
<path d="M100 0C155.225 0 200 44.775 200 100C200 155.225 155.225 200 100 200C44.775 200 0 155.225 0 100C0 44.775 44.775 0 100 0Z" fill="#F5A73D"/>
<path opacity="0.7" d="M66.7602 66.9736H134.16C136.935 66.9736 139.685 67.4486 142.31 68.3486C142.21 68.1736 142.135 67.9986 142.035 67.8236L129.385 45.9236C127.149 42.0537 123.468 39.2297 119.15 38.0719C114.833 36.914 110.233 37.5171 106.36 39.7486L65.0102 63.6236C63.1352 64.6986 61.4852 66.1486 60.1602 67.8486C62.3352 67.2736 64.5352 66.9736 66.7602 66.9736Z" fill="#FDEACA"/>
<path d="M58.8 69.5234H141.175C145.995 69.5234 150.618 71.4383 154.027 74.8468C157.435 78.2552 159.35 82.8781 159.35 87.6984V135.698C159.35 138.085 158.88 140.449 157.967 142.654C157.053 144.859 155.714 146.862 154.027 148.55C152.339 150.238 150.335 151.577 148.13 152.49C145.925 153.403 143.562 153.873 141.175 153.873H58.8C56.4132 153.873 54.0498 153.403 51.8447 152.49C49.6396 151.577 47.636 150.238 45.9483 148.55C44.2606 146.862 42.9219 144.859 42.0085 142.654C41.0951 140.449 40.625 138.085 40.625 135.698V87.6984C40.625 77.6734 48.775 69.5234 58.8 69.5234Z" fill="white"/>
<path d="M126.575 97.6484H156.25V125.773H126.575C118.8 125.773 112.525 119.473 112.5 111.723C112.5 107.991 113.983 104.41 116.622 101.771C119.262 99.1313 122.842 97.6484 126.575 97.6484Z" fill="#F5A73D"/>
<path d="M118.75 111.723C118.75 113.799 119.738 115.789 121.496 117.257C123.254 118.724 125.639 119.548 128.125 119.548C130.611 119.548 132.996 118.724 134.754 117.257C136.512 115.789 137.5 113.799 137.5 111.723C137.5 109.648 136.512 107.658 134.754 106.19C132.996 104.723 130.611 103.898 128.125 103.898C125.639 103.898 123.254 104.723 121.496 106.19C119.738 107.658 118.75 109.648 118.75 111.723Z" fill="white"/>
</g>
<defs>
<clipPath id="clip0_3883_3033">
<rect width="200" height="200" fill="white"/>
</clipPath>
</defs>
</svg>
